<svg width="86" height="95" viewBox="0 0 86 95" fill="none" xmlns="http://www.w3.org/2000/svg">
<path fill-rule="evenodd" clip-rule="evenodd" d="M0 43C0 19.2518 19.2518 0 43 0C66.7482 0 86 19.2518 86 43V88.0759C86 90.4331 85.8103 92.7459 85.4454 95H83.5485L70 81.7721L56.4515 95H55.7017L43 81.7721L30.2983 95H29.5485L16 81.7721L2.45151 95H0.554548C0.189659 92.7459 0 90.4331 0 88.0759V43Z" fill="#0000FF"/>
<ellipse cx="59" cy="36" rx="10" ry="11" fill="#D9D9D9"/>
<ellipse cx="27" cy="36" rx="10" ry="11" fill="#D9D9D9"/>
<path fill-rule="evenodd" clip-rule="evenodd" d="M33.1586 63.8681L23.3171 55L10 67H17.9076L23.8116 61L29.7155 67H36.6342H37.5906L43.4945 61L49.3984 67H56.3171H57.2734L63.1774 61L69.0813 67H76L62.6829 55L52.8415 63.8681L43 55L33.1586 63.8681Z" fill="#D9D9D9"/>
</svg>
